<svg xmlns="http://www.w3.org/2000/svg" width="2400" height="540" viewBox="0 0 2400 540" version="1.1">
	<path d="M 126 1.160 C 91.662 4.368, 65.945 18.603, 51.828 42.216 C 42.556 57.724, 38.913 71.566, 35.566 104 C 35.311 106.475, 35.079 115.362, 35.051 123.750 L 35 139 17.471 139 L -0.058 139 0.221 152.250 L 0.500 165.500 17.780 165.774 L 35.061 166.047 34.768 272.274 C 34.440 391.333, 34.842 384.931, 27.212 392.847 C 22.991 397.227, 17.703 399.394, 7.208 401.047 L -0.084 402.195 0.208 409.347 L 0.500 416.500 84.250 416.756 L 168 417.011 168 409.624 L 168 402.237 159.250 401.562 C 131.991 399.459, 124.320 394.434, 120.443 376.144 C 119.285 370.682, 119.032 351.349, 119.017 267.500 L 118.999 165.500 144.750 165.500 L 170.500 165.500 170.779 152.250 L 171.058 139 145.029 139 L 119 139 119 95.184 C 119 67.766, 119.409 49.147, 120.093 45.434 C 122.545 32.130, 129.362 23.404, 139.640 20.416 C 149.300 17.608, 160.648 19.804, 164.439 25.217 C 167.073 28.977, 166.279 32.994, 161.065 42.291 C 154.357 54.249, 152.628 59.797, 153.245 67.387 C 154.200 79.150, 160.906 88.859, 171.771 94.208 C 178.055 97.301, 179.093 97.499, 188.979 97.490 C 198.436 97.481, 200.130 97.190, 205.734 94.611 C 220.541 87.795, 228.527 71.820, 226.008 54.056 C 224.219 41.439, 220.091 33.242, 210.998 24.244 C 198.294 11.674, 179.409 3.632, 156.500 1.036 C 146.225 -0.128, 139.489 -0.101, 126 1.160 M 1202.263 1.514 C 1193.316 3.458, 1184.809 8.359, 1178.438 15.240 C 1169.537 24.855, 1165.620 34.984, 1165.771 48 C 1165.925 61.324, 1170.801 72.799, 1179.942 81.349 C 1197.803 98.055, 1228.279 97.721, 1245.306 80.631 C 1263.679 62.191, 1263.578 32.418, 1245.080 13.920 C 1238.400 7.240, 1231.315 3.387, 1222.131 1.440 C 1214.086 -0.265, 1210.389 -0.251, 1202.263 1.514 M 2296.777 57.750 C 2288.239 69.162, 2277.484 82.998, 2272.877 88.495 C 2261.812 101.698, 2237.292 126.757, 2223.212 139.253 L 2211.924 149.271 2212.212 157.386 L 2212.500 165.500 2227.706 165.776 L 2242.913 166.052 2243.234 268.776 C 2243.554 371.058, 2243.565 371.534, 2245.753 379.314 C 2252.150 402.058, 2267.275 416.363, 2290.500 421.636 C 2301.308 424.090, 2320.697 424.101, 2331.240 421.660 C 2358.457 415.358, 2376.126 400.143, 2394.506 367.180 C 2397.671 361.505, 2399.865 356.512, 2399.380 356.087 C 2398.087 354.949, 2385.025 349.620, 2384.694 350.095 C 2384.538 350.318, 2382.181 354.262, 2379.455 358.861 C 2372.937 369.858, 2364.889 377.395, 2357.309 379.599 C 2347.495 382.452, 2337.200 379.381, 2332.606 372.230 C 2327.330 364.018, 2327.500 367.655, 2327.500 263.204 L 2327.500 165.908 2355.500 165.704 L 2383.500 165.500 2383.779 152.250 L 2384.058 139 2355.529 139 L 2327 139 2327 88 L 2327 37 2319.650 37 L 2312.300 37 2296.777 57.750 M 723.500 133.482 C 703.191 138.965, 684.216 153.370, 666.937 176.422 L 659.500 186.344 659.232 162.672 L 658.964 139 601.982 139 L 545 139 545 146.361 L 545 153.721 549.750 154.327 C 562.265 155.922, 569.512 160.269, 573.628 168.650 L 576.500 174.500 576.500 277.500 L 576.500 380.500 573.666 386.271 C 569.653 394.445, 563.534 398.027, 547.750 401.443 C 545.048 402.028, 545 402.169, 545 409.519 L 545 417 625 417 L 705 417 705 409.674 L 705 402.349 693.602 400.747 C 673.896 397.977, 666.786 392.480, 662.886 377 C 661.769 372.566, 661.500 357.549, 661.500 299.500 C 661.500 219.862, 661.395 221.340, 668.070 207.354 C 671.997 199.125, 680.658 189.788, 687.322 186.598 C 698.896 181.058, 704.774 183.527, 715.384 198.386 C 721.130 206.432, 728.846 213.546, 734.741 216.231 C 738.694 218.032, 741.364 218.401, 750.500 218.412 C 760.289 218.423, 762.127 218.134, 767.199 215.790 C 782.547 208.695, 791.416 189.725, 788.089 171.109 C 784.691 152.094, 772.220 138.158, 754.465 133.533 C 747.212 131.644, 730.410 131.616, 723.500 133.482 M 988.516 133.602 C 972.847 137.088, 958.912 144.095, 946.335 154.810 C 939.312 160.794, 929.248 172.386, 925.354 178.978 C 924.372 180.640, 923.216 182, 922.784 182 C 922.353 182, 922 172.325, 922 160.500 L 922 139 864.456 139 L 806.912 139 807.206 146.225 L 807.500 153.451 811.907 154.200 C 825.992 156.595, 833.389 161.254, 836.692 169.814 C 838.394 174.226, 838.500 180.531, 838.500 277.500 C 838.500 374.604, 838.396 380.769, 836.685 385.203 C 833.771 392.755, 826.796 397.766, 816.008 400.058 C 805.939 402.197, 806.879 401.212, 807.207 409.280 L 807.500 416.500 880 416.500 L 952.500 416.500 952.500 409.530 C 952.500 401.785, 953.056 402.364, 943.343 399.989 C 936.202 398.243, 929.917 393.230, 926.522 386.572 L 923.500 380.643 923.218 293.714 L 922.937 206.784 925.427 202.535 C 926.796 200.198, 931.464 194.959, 935.801 190.893 C 953.873 173.947, 971.700 168.352, 986.613 174.946 C 995.352 178.811, 1000.403 185.340, 1003.676 197 C 1005.379 203.068, 1005.500 209.386, 1005.500 292 L 1005.500 380.500 1003.196 385.500 C 999.149 394.285, 993.160 398.914, 983.033 401.086 L 978 402.166 978 409.583 L 978 417 1048.500 417 L 1119 417 1119 409.561 L 1119 402.123 1114.250 401.419 C 1103.081 399.765, 1096.601 395.787, 1092.884 388.302 L 1090.500 383.500 1089.934 291.500 C 1089.320 191.559, 1089.535 195.351, 1083.576 179.579 C 1075.306 157.691, 1057.702 141.885, 1033.821 134.907 C 1023.939 132.020, 998.872 131.297, 988.516 133.602 M 1480.500 133.603 C 1465.887 136.818, 1454.181 143.029, 1443.943 153 C 1438.277 158.518, 1434.836 163.127, 1426.309 176.616 C 1425.363 178.112, 1425.106 174.435, 1425.059 158.750 L 1425 139 1367.250 139 L 1309.500 138.999 1309.653 146.219 L 1309.806 153.439 1316.190 154.617 C 1328.894 156.962, 1335.112 160.879, 1338.878 168.909 L 1341.500 174.500 1341.500 339.500 L 1341.500 504.500 1339.375 509.095 C 1335.578 517.305, 1331.131 520.242, 1317.500 523.543 L 1308.500 525.722 1308.206 532.861 L 1307.912 540 1390.456 540 L 1473 540 1473 533.700 L 1473 527.400 1463.048 526.295 C 1442.925 524.062, 1433.646 516.578, 1428.299 498.267 C 1426.841 493.271, 1426.566 485.559, 1426.243 440.608 L 1425.870 388.716 1434.685 396.898 C 1456.336 416.994, 1472.235 423.945, 1496.640 423.983 C 1538.559 424.048, 1573.083 401.069, 1593.517 359.500 C 1606.799 332.480, 1612.315 306.246, 1612.229 270.500 C 1612.117 224.125, 1600.245 189.782, 1575.427 164.037 C 1561.618 149.713, 1545.502 139.925, 1527.500 134.929 C 1516.898 131.986, 1491.151 131.260, 1480.500 133.603 M 1744.105 133.128 C 1721.994 136.063, 1698.129 145.439, 1683.812 156.816 C 1666.365 170.680, 1656.872 190.637, 1658.317 210.414 C 1659.586 227.803, 1665.650 237.623, 1679 243.910 C 1684.045 246.286, 1685.575 246.499, 1697.500 246.482 C 1713.953 246.460, 1719.631 244.529, 1728.080 236.080 C 1734.954 229.206, 1738 221.966, 1738 212.500 C 1738 203.747, 1735.247 196.929, 1727.537 186.587 C 1719.735 176.122, 1719.019 173.544, 1722.162 167.219 C 1728.481 154.502, 1748.647 148.352, 1771.140 152.280 C 1783.374 154.417, 1790.932 158.078, 1797.282 164.943 C 1806.888 175.329, 1809.296 187.882, 1808.800 224.989 L 1808.500 247.477 1803.500 249.153 C 1800.750 250.074, 1788.375 254.064, 1776 258.020 C 1744.746 268.011, 1728.980 273.976, 1711.255 282.519 C 1686.596 294.405, 1670.794 305.812, 1661.150 318.689 C 1651.021 332.215, 1647 344.352, 1647 361.405 C 1647 391.009, 1663.645 412.992, 1693 422.158 C 1699.498 424.187, 1702.437 424.488, 1715 424.411 C 1730.688 424.314, 1737.952 423.095, 1753.118 418.014 C 1769.603 412.491, 1788.889 401.180, 1801.793 389.466 C 1805.255 386.324, 1808.252 383.922, 1808.454 384.127 C 1808.656 384.332, 1809.569 387.389, 1810.482 390.920 C 1816.409 413.834, 1831.931 424.923, 1858.162 424.983 C 1879.656 425.031, 1898.458 417.031, 1915.933 400.401 C 1920.920 395.656, 1925 391.349, 1925 390.831 C 1925 390.314, 1923.166 387.189, 1920.924 383.888 L 1916.848 377.886 1912.446 381.943 C 1908.786 385.316, 1907.351 386, 1903.927 386 C 1899.053 386, 1894.689 383.673, 1892.835 380.085 C 1891.762 378.008, 1891.401 359.924, 1890.998 288 L 1890.497 198.500 1887.743 190.369 C 1879.730 166.715, 1859.397 149.080, 1829.220 139.612 C 1812.475 134.358, 1800.487 132.774, 1775 132.448 C 1762.075 132.282, 1748.172 132.588, 1744.105 133.128 M 2128 133.571 C 2120.749 135.469, 2107.861 141.858, 2101 146.958 C 2092.518 153.262, 2079.188 167.034, 2072 176.922 C 2068.425 181.839, 2065.162 185.893, 2064.750 185.931 C 2064.338 185.969, 2064 175.425, 2064 162.500 L 2064 139 2006.956 139 L 1949.912 139 1950.206 146.194 L 1950.500 153.388 1957 154.603 C 1974.132 157.806, 1979.962 164.225, 1982.047 182.183 C 1982.774 188.441, 1983.017 222.034, 1982.787 284.500 C 1982.411 386.321, 1982.634 382.547, 1976.522 390.560 C 1973.470 394.562, 1966.277 398.504, 1959.325 399.987 C 1948.879 402.214, 1949.878 401.195, 1950.207 409.280 L 1950.500 416.500 2030.250 416.756 L 2110 417.012 2110 409.629 L 2110 402.247 2100.265 401.022 C 2087.422 399.405, 2080.515 396.774, 2075.471 391.577 C 2066.684 382.524, 2065.687 371.263, 2066.260 287.500 C 2066.651 230.379, 2066.772 227.133, 2068.767 219.856 C 2071.794 208.821, 2076.371 200.469, 2083.054 193.786 C 2089.788 187.052, 2095.613 184.053, 2102.018 184.022 C 2108.282 183.992, 2112.536 187.161, 2119.872 197.322 C 2127.238 207.526, 2132.504 212.406, 2139.880 215.865 C 2144.839 218.190, 2146.734 218.499, 2156 218.491 C 2165.231 218.483, 2167.179 218.165, 2172.120 215.856 C 2179.380 212.463, 2184.919 207.402, 2188.429 200.953 C 2197.833 183.675, 2195.155 161.682, 2181.800 146.510 C 2173.097 136.623, 2160.946 131.962, 2144.145 132.066 C 2138.290 132.102, 2131.025 132.779, 2128 133.571 M 202.206 146.230 L 202.500 153.459 207.822 154.638 C 221.328 157.629, 226.607 161.808, 230.316 172.442 C 231.025 174.473, 231.585 206.575, 231.983 268 C 232.575 359.255, 232.612 360.608, 234.782 368.500 C 242.505 396.601, 260.484 414.902, 287.500 422.161 C 299.232 425.314, 325.994 425.324, 337.408 422.179 C 354.816 417.384, 369.831 409.262, 387.521 395.072 L 398.500 386.265 398.772 405.133 C 398.921 415.510, 399.264 424, 399.533 424 C 399.802 424, 405.080 422.471, 411.261 420.601 C 432.150 414.284, 452.162 411.028, 498.750 406.364 L 516 404.638 516 397.464 L 516 390.290 509.032 389.706 C 496.303 388.639, 488.659 383.715, 484.753 374.066 L 482.500 368.500 482.210 253.750 L 481.921 139 421.417 139 L 360.912 139 361.206 146.250 L 361.500 153.500 368.190 154.162 C 379.348 155.265, 385.630 157.577, 390.383 162.330 C 398.288 170.235, 398 166.199, 398 269.201 L 398 359.771 391.556 365.799 C 372.570 383.559, 353.766 389.399, 334.891 383.398 C 328.214 381.275, 322.823 376.195, 319.415 368.813 L 316.500 362.500 316.229 250.750 L 315.958 139 258.935 139 L 201.912 139 202.206 146.230 M 1139 146.386 L 1139 153.773 1143.711 154.479 C 1156.520 156.400, 1166.519 163.294, 1169.149 172.017 C 1170.245 175.655, 1170.500 195.543, 1170.500 277.500 C 1170.500 371.602, 1170.379 378.847, 1168.728 383.576 C 1165.756 392.086, 1159.570 396.678, 1146.676 399.947 L 1139.500 401.767 1139.208 409.383 L 1138.916 417 1210.958 417 L 1283 417 1283 409.571 L 1283 402.142 1277.633 401.028 C 1274.682 400.415, 1269.857 398.471, 1266.912 396.707 C 1262.610 394.131, 1260.961 392.334, 1258.529 387.571 L 1255.500 381.642 1255.231 260.321 L 1254.961 139 1196.981 139 L 1139 139 1139 146.386 M 1466.892 167.385 C 1458.286 169.879, 1451.643 174.297, 1441.957 183.970 C 1435.681 190.237, 1431.315 195.603, 1429.207 199.640 L 1426 205.780 1426.013 280.640 L 1426.026 355.500 1429.987 362.640 C 1442.136 384.546, 1462.539 394.959, 1482.764 389.575 C 1494.724 386.391, 1503.500 378.150, 1510.461 363.568 C 1515.402 353.217, 1518.134 343.463, 1520.705 327 C 1523.271 310.562, 1523.261 247.466, 1520.689 229 C 1516.032 195.559, 1506.525 176.274, 1491.240 169.259 C 1484.787 166.297, 1473.617 165.437, 1466.892 167.385 M 1798 271.871 C 1769.056 281.388, 1749.205 296.949, 1740.030 317.313 C 1731.384 336.502, 1734.088 361.653, 1746.107 373.830 C 1753.780 381.604, 1765.356 383.955, 1776.829 380.069 C 1785.521 377.125, 1790.133 374.027, 1799.750 364.671 L 1808 356.645 1808 312.823 C 1808 288.720, 1807.662 269.017, 1807.250 269.038 C 1806.838 269.059, 1802.675 270.334, 1798 271.871" stroke="none" fill="#000000" fill-rule="evenodd"/>
</svg>